<svg height="23" xmlns="http://www.w3.org/2000/svg" viewBox="51.075 116.213 502.008 47.028"><title>Google Pay</title><path d="M110.862 128.852h-32c-1.7 0-3 1.3-3 3v18c0 1.7 1.4 3 3 3h32c1.7 0 3-1.3 3-3v-18c0-1.7-1.4-3-3-3" opacity=".07" style="stroke-width:1" transform="translate(-62.04 -99.103)scale(1.69629)"></path><path d="M110.862 129.852c1.1 0 2 .9 2 2v18c0 1.1-.9 2-2 2h-32c-1.1 0-2-.9-2-2v-18c0-1.1.9-2 2-2z" fill="#fff" style="stroke-width:1" transform="translate(-62.04 -99.103)scale(1.69629)"></path><path d="M93.955 140.828v3.2h-1.018v-7.9h2.691a2.45 2.45 0 0 1 1.747.692 2.28 2.28 0 0 1 .11 3.224l-.11.116c-.47.447-1.098.69-1.747.674zm0-3.732v2.788h1.698c.377.012.741-.135 1.005-.404a1.391 1.391 0 0 0-1.005-2.354zm6.484 1.348c.65-.03 1.286.188 1.778.613.445.43.682 1.03.65 1.649v3.334h-.969v-.766h-.049c-.353.585-.99.939-1.673.931a2.17 2.17 0 0 1-1.496-.533 1.67 1.67 0 0 1-.613-1.324 1.6 1.6 0 0 1 .613-1.336 2.75 2.75 0 0 1 1.698-.515c.517-.02 1.03.093 1.49.331v-.208a1.13 1.13 0 0 0-.417-.901 1.42 1.42 0 0 0-.98-.368 1.55 1.55 0 0 0-1.319.717l-.895-.564a2.49 2.49 0 0 1 2.182-1.06m-1.287 3.928a.79.79 0 0 0 .337.662c.223.176.5.269.785.263.429-.001.84-.17 1.146-.472.305-.286.478-.685.478-1.103a2.05 2.05 0 0 0-1.324-.374 1.72 1.72 0 0 0-1.03.294.89.89 0 0 0-.392.73m9.286-3.75-3.39 7.79H104l1.281-2.728-2.224-5.062h1.103l1.612 3.885 1.569-3.885z" fill="#5f6368" style="stroke-width:1" transform="translate(-62.04 -99.103)scale(1.69629)"></path><path d="M89.848 140.136q0-.463-.073-.92h-4.29v1.747h2.451a2.1 2.1 0 0 1-.9 1.373v1.134H88.5a4.43 4.43 0 0 0 1.348-3.334" fill="#4285f4" style="stroke-width:1" transform="translate(-62.04 -99.103)scale(1.69629)"></path><path d="M85.491 144.573a4.35 4.35 0 0 0 3.01-1.097l-1.466-1.14a2.752 2.752 0 0 1-4.094-1.44h-1.502v1.17a4.53 4.53 0 0 0 4.052 2.507" fill="#34a853" style="stroke-width:1" transform="translate(-62.04 -99.103)scale(1.69629)"></path><path d="M82.941 140.902a2.7 2.7 0 0 1 0-1.735v-1.17h-1.502a4.5 4.5 0 0 0 0 4.075z" fill="#fbbc04" style="stroke-width:1" transform="translate(-62.04 -99.103)scale(1.69629)"></path><path d="M85.491 137.292a2.45 2.45 0 0 1 1.74.68l1.3-1.293a4.37 4.37 0 0 0-3.065-1.183 4.53 4.53 0 0 0-4.027 2.5l1.502 1.171a2.72 2.72 0 0 1 2.55-1.875" fill="#ea4335" style="stroke-width:1" transform="translate(-62.04 -99.103)scale(1.69629)"></path><title>Mastercard</title><g transform="translate(-44.855 -99.103)scale(1.69629)"><path opacity=".07" d="M148.722 128.901h-32c-1.7 0-3 1.3-3 3v18c0 1.7 1.4 3 3 3h32c1.7 0 3-1.3 3-3v-18c0-1.7-1.4-3-3-3" style="stroke-width:1"></path><path fill="#fff" d="M148.722 129.901c1.1 0 2 .9 2 2v18c0 1.1-.9 2-2 2h-32c-1.1 0-2-.9-2-2v-18c0-1.1.9-2 2-2z" style="stroke-width:1"></path><circle fill="#eb001b" cx="128.722" cy="140.901" r="7" style="stroke-width:1"></circle><circle fill="#f79e1b" cx="136.722" cy="140.901" r="7" style="stroke-width:1"></circle><path fill="#ff5f00" d="M135.722 140.901c0-2.4-1.2-4.5-3-5.7-1.8 1.3-3 3.4-3 5.7s1.2 4.5 3 5.7c1.8-1.2 3-3.3 3-5.7" style="stroke-width:1"></path></g><title>Paytm</title><g transform="translate(-27.892 -99.103)scale(1.69629)"><rect x="152.224" y="129.39" width="37" height="23" rx="3" ry="3" fill="#fff" stroke="#000" stroke-opacity=".07" style="stroke-width:1"></rect><path d="M165.894 142.21v2.6a.87.87 0 0 1-.74.91h-2.7a1.83 1.83 0 0 1-2-1.9 15 15 0 0 1 .06-2.08 1.81 1.81 0 0 1 1.69-1.54h1.19a.31.31 0 0 0 .34-.41.33.33 0 0 0-.23-.41h-1.78c-.38 0-.46-.08-.46-.47v-1.11a.3.3 0 0 1 .25-.35h2.39a1.87 1.87 0 0 1 1.92 2.1c.08.91.07 1.79.07 2.66m-3.32 1.34a.34.34 0 0 0 .31.36h.61a.33.33 0 0 0 .36-.35v-1.13c0-.3-.16-.36-.72-.36s-.53.1-.56.37zm9.58-2.73v2.81a2 2 0 0 1-1.85 2.15h-2.45c-.34 0-.42-.07-.42-.42v-1.26a.3.3 0 0 1 .29-.35h2a.32.32 0 0 0 .36-.34.33.33 0 0 0-.31-.35h-1a1.94 1.94 0 0 1-2-1.86v-3.31a.32.32 0 0 1 .26-.37h1.34c.34 0 .42.1.42.45v2.6c0 .45.1.54.55.54h.05c.62 0 .67-.05.67-.66v-2.56a.36.36 0 0 1 .45-.5h1.21a.36.36 0 0 1 .42.42c.01 1.08.01 2.02.01 3.01m-15.86 2.55v1.94c0 .46-.06.51-.52.51h-1.18a.3.3 0 0 1-.36-.36v-7.57a.28.28 0 0 1 .22-.32h3.47a1.66 1.66 0 0 1 1.62 1.61q.088 1.245 0 2.49a1.74 1.74 0 0 1-1.73 1.74h-1.52zm0-2.08h.86a.32.32 0 0 0 .32-.31v-1.09a.32.32 0 0 0-.28-.35h-.88v1.74z" fill="#22346c" style="stroke-width:1"></path><path d="M180.664 137.89a2.2 2.2 0 0 1 2.86.1 7.3 7.3 0 0 1 1.15-.51 2.08 2.08 0 0 1 2.56 2v5.83c0 .36-.09.45-.45.45h-1.15a.35.35 0 0 1-.42-.42v-5.24a.6.6 0 0 0-.79-.64.55.55 0 0 0-.49.58v5.4a.31.31 0 0 1-.25.36h-1.43a.3.3 0 0 1-.35-.31v-5.43a.48.48 0 0 0-.29-.55 1.4 1.4 0 0 0-.71 0 .48.48 0 0 0-.26.53v5.21c0 .48-.06.55-.56.55h-1c-.36 0-.42-.08-.42-.44v-7.47c0-.42.06-.47.46-.47h1.09a.42.42 0 0 1 .45.47m-5.43 1.64h-.77a.33.33 0 0 1-.411-.397l.001-.003v-1.24a.31.31 0 0 1 .25-.36h.1a2 2 0 0 0 1.74-1c.152-.228.35-.422.58-.57.24-.16.42 0 .44.27v1.27h.7a.36.36 0 0 1 .42.42v1.22a.35.35 0 0 1-.42.42h-.66v5.83c0 .42-.07.48-.47.49h-1.09a.34.34 0 0 1-.423-.41l.003-.01c.01-1.87.01-5.78.01-5.92z" fill="#24b8eb" style="stroke-width:1"></path></g><title>Visa</title><path opacity=".07" d="M224.72 128.898h-32c-1.7 0-3 1.3-3 3v18c0 1.7 1.4 3 3 3h32c1.7 0 3-1.3 3-3v-18c0-1.7-1.4-3-3-3" style="stroke-width:1" transform="translate(-10.929 -99.103)scale(1.69629)"></path><path fill="#fff" d="M224.72 129.898c1.1 0 2 .9 2 2v18c0 1.1-.9 2-2 2h-32c-1.1 0-2-.9-2-2v-18c0-1.1.9-2 2-2z" style="stroke-width:1" transform="translate(-10.929 -99.103)scale(1.69629)"></path><path d="M218.02 138.998h-.3c-.4 1-.7 1.5-1 3h1.9c-.3-1.5-.3-2.2-.6-3m2.9 5.9h-1.7c-.1 0-.1 0-.2-.1l-.2-.9-.1-.2h-2.4c-.1 0-.2 0-.2.2l-.3.9c0 .1-.1.1-.1.1h-2.1l.2-.5 2.9-6.8c0-.5.3-.7.8-.7h1.5c.1 0 .2 0 .2.2l1.4 6.5c.1.4.2.7.2 1.1.1.1.1.1.1.2m-13.4-.3.4-1.8c.1 0 .2.1.2.1.7.3 1.4.5 2.1.4.2 0 .5-.1.7-.2.5-.2.5-.7.1-1.1-.2-.2-.5-.3-.8-.5-.4-.2-.8-.4-1.1-.7-1.2-1-.8-2.4-.1-3.1.6-.4.9-.8 1.7-.8 1.2 0 2.5 0 3.1.2h.1c-.1.6-.2 1.1-.4 1.7-.5-.2-1-.4-1.5-.4-.3 0-.6 0-.9.1-.2 0-.3.1-.4.2-.2.2-.2.5 0 .7l.5.4c.4.2.8.4 1.1.6.5.3 1 .8 1.1 1.4.2.9-.1 1.7-.9 2.3-.5.4-.7.6-1.4.6-1.4 0-2.5.1-3.4-.2-.1.2-.1.2-.2.1m-3.5.3c.1-.7.1-.7.2-1 .5-2.2 1-4.5 1.4-6.7.1-.2.1-.3.3-.3h1.8c-.2 1.2-.4 2.1-.7 3.2-.3 1.5-.6 3-1 4.5 0 .2-.1.2-.3.2m-11-7.7c0-.1.2-.2.3-.2h3.4c.5 0 .9.3 1 .8l.9 4.4c0 .1 0 .1.1.2 0-.1.1-.1.1-.1l2.1-5.1c-.1-.1 0-.2.1-.2h2.1c0 .1 0 .1-.1.2l-3.1 7.3c-.1.2-.1.3-.2.4s-.3 0-.5 0h-1.5c-.1 0-.2 0-.2-.2l-1.6-6.2c-.2-.2-.5-.5-.9-.6-.6-.3-1.7-.5-1.9-.5z" fill="#142688" style="stroke-width:1" transform="translate(-10.929 -99.103)scale(1.69629)"></path><title>RuPay</title><g fill="none" fill-rule="evenodd" transform="translate(392.313 119.549)scale(1.69629)"><rect stroke-opacity=".07" stroke="#000" fill="#fff" x=".5" y=".5" width="37" height="23" rx="3"></rect><path fill="#097a44" d="m32 15.77 2-7.41 2 3.82z"></path><path fill="#f46f20" d="m30.76 15.79 2-7.4 2 3.82z"></path><path d="M20.67 8.2a2 2 0 0 0-1.56-.56h-3l-1.95 6.81h1.75l.66-2.31h1.23a3.4 3.4 0 0 0 1.9-.5 2.93 2.93 0 0 0 1.12-1.72 1.77 1.77 0 0 0-.15-1.72m-3.21.94h1.12a.76.76 0 0 1 .55.15c.11.11.07.35 0 .53a1.08 1.08 0 0 1-.4.62 1.2 1.2 0 0 1-.7.2H17zM9.14 9a1.6 1.6 0 0 0-.2-.61 1.3 1.3 0 0 0-.58-.53 2.75 2.75 0 0 0-1.08-.18H4l-2 6.75h1.73l.72-2.52H5.7c.47 0 .58.1.6.13s.09.15 0 .65l-.16.6a3.4 3.4 0 0 0-.11.59v.55h1.79l.12-.43-.11-.08s-.07-.05-.06-.2q.04-.285.13-.56l.1-.42a2.14 2.14 0 0 0 .1-1.11.9.9 0 0 0-.26-.41 2 2 0 0 0 .68-.54 2.8 2.8 0 0 0 .53-1c.07-.22.101-.45.09-.68m-1.86.83a.84.84 0 0 1-.5.6 1.8 1.8 0 0 1-.64.09H4.86l.38-1.33h1.43a1.1 1.1 0 0 1 .53.09c.05 0 .21.07.08.5zm4.9 2.17a2.1 2.1 0 0 1-.3.67 1 1 0 0 1-.87.43c-.34 0-.36-.14-.38-.2a1.2 1.2 0 0 1 .07-.52l.89-3.11H9.9l-.86 3a3 3 0 0 0-.15 1.32c.08.42.4.91 1.41.91.247.004.493-.03.73-.1a2.5 2.5 0 0 0 .6-.29l-.08.3h1.62l1.47-5.13H13zm12.93 1.1.63-2.18c.24-.83-.07-1.21-.37-1.39A2.75 2.75 0 0 0 24 9.2a2.87 2.87 0 0 0-2 .68 2.75 2.75 0 0 0-.69 1.1l-.09.26h1.61v-.11a1.2 1.2 0 0 1 .25-.37.84.84 0 0 1 .56-.17.9.9 0 0 1 .46.08v.18c0 .06 0 .15-.25.23a2 2 0 0 1-.48.1l-.44.05a4 4 0 0 0-1.25.32c-.57.271-.99.78-1.15 1.39a1.25 1.25 0 0 0 .17 1.22c.289.307.7.468 1.12.44a2.4 2.4 0 0 0 1.07-.25l.4-.23v.33H25l.13-.48-.13-.07a.6.6 0 0 1 0-.22c0-.25.07-.43.11-.58m-2.92-.1a.62.62 0 0 1 .34-.4 2.2 2.2 0 0 1 .57-.15l.29-.05.3-.07v.07a1.24 1.24 0 0 1-.51.75 1.44 1.44 0 0 1-.72.21.34.34 0 0 1-.25-.08.55.55 0 0 1-.02-.28m7.91-3.68-1.69 3v-3h-1.8l.39 5.13-.12.19a.8.8 0 0 1-.23.25.6.6 0 0 1-.24.08h-.68l-.39 1.37h.83a2 2 0 0 0 1.29-.34 9.6 9.6 0 0 0 1.27-1.71l3.17-5z" fill="#302f82"></path></g><title>UPI</title><path opacity=".07" d="M300.722 128.901h-32c-1.7 0-3 1.3-3 3v18c0 1.7 1.4 3 3 3h32c1.7 0 3-1.3 3-3v-18c0-1.7-1.4-3-3-3" style="stroke-width:1" transform="translate(22.997 -99.103)scale(1.69629)"></path><path fill="#fff" d="M300.722 129.901c1.1 0 2 .9 2 2v18c0 1.1-.9 2-2 2h-32c-1.1 0-2-.9-2-2v-18c0-1.1.9-2 2-2z" style="stroke-width:1" transform="translate(22.997 -99.103)scale(1.69629)"></path><path fill="#097939" d="m296.019 146.061 4.535-5.227-2.148-5.406zm0 0" style="stroke-width:1" transform="translate(22.997 -99.103)scale(1.69629)"></path><path fill="#ed752e" d="m294.491 146.061 4.536-5.227-2.149-5.406zm0 0" style="stroke-width:1" transform="translate(22.997 -99.103)scale(1.69629)"></path><path fill="#747474" d="m272.82 135.491-1.911 8.589 6.778.059 1.863-8.648h1.719l-2.235 10.054c-.086.383-.41.696-.726.696h-8.688c-.527 0-.839-.52-.695-1.161l2.129-9.589zm20.957-.063h1.718l-2.386 10.813h-1.77zm-12.317 4.504 8.594-.059.57-2.281h-8.734l.523-2.105 9.313-.106c.578-.008.922.559.769 1.266l-.875 4.051c-.156.707-.75 1.277-1.328 1.277h-7.687l-.907 4.445h-1.671zm0 0" style="stroke-width:1" transform="translate(22.997 -99.103)scale(1.69629)"></path></svg>