<svg viewBox="0 0 621.29 127.92" xmlns="http://www.w3.org/2000/svg" data-name="Layer 2" id="Layer_2">
  <g id="Text">
    <g>
      <path d="m54.6,126.09c-.94,1.22-1.98,1.84-3.15,1.84-1.29,0-2.39-.61-3.32-1.84-.94-1.23-2.16-3.7-3.68-7.44L.7,8.22c-.47-.93-.7-1.86-.7-2.8,0-1.75,1.34-2.62,4.02-2.62h16.45c1.98,0,3.38.32,4.2.96.81.64,1.69,2.07,2.62,4.29l25.55,67.55,25.03-63c1.28-3.03,2.36-5.07,3.24-6.12.88-1.05,1.95-1.57,3.24-1.57s2.36.52,3.24,1.57c.88,1.05,1.9,3.09,3.06,6.12l25.02,62.48,25.38-67.02c.81-2.21,1.66-3.65,2.54-4.29.88-.64,2.36-.96,4.46-.96h16.1c2.68,0,4.02.88,4.02,2.62,0,.94-.24,1.87-.7,2.8l-43.75,110.43c-1.4,3.73-2.57,6.21-3.5,7.44-.94,1.22-2.04,1.84-3.32,1.84-1.17,0-2.19-.58-3.06-1.75s-2.01-3.5-3.41-7l-26.25-64.75-26.25,64.75c-1.29,3.39-2.39,5.69-3.33,6.91Z"></path>
      <path d="m188.3,119.87c-1.05,2.22-2.1,3.67-3.15,4.38s-2.62,1.05-4.73,1.05h-15.57c-2.57,0-3.85-.81-3.85-2.45,0-.58.29-1.57.88-2.97L216.3,8.75c1.63-3.5,2.98-5.83,4.02-7,1.05-1.17,2.21-1.75,3.5-1.75s2.39.58,3.33,1.75c.93,1.17,2.27,3.5,4.02,7l54.77,111.12c.58,1.4.88,2.39.88,2.97,0,1.64-1.29,2.45-3.85,2.45h-16.62c-1.99,0-3.5-.35-4.55-1.05-1.05-.7-2.1-2.16-3.15-4.38l-35.35-74.55-35,74.55Z"></path>
      <path d="m332.5,102.02c.35.35.93.52,1.75.52h48.12c1.52,0,2.6.32,3.24.96.64.64.96,1.72.96,3.24v14.35c0,1.52-.32,2.6-.96,3.24-.64.64-1.72.96-3.24.96h-70.7c-1.52,0-2.6-.32-3.24-.96-.64-.64-.96-1.72-.96-3.24V7c0-1.52.32-2.6.96-3.24.64-.64,1.72-.96,3.24-.96h15.92c1.52,0,2.62.32,3.33.96.7.64,1.05,1.72,1.05,3.24v93.27c0,.82.18,1.4.53,1.75Z"></path>
      <path d="m438.02,102.02c.35.35.93.52,1.75.52h48.12c1.51,0,2.59.32,3.24.96.64.64.96,1.72.96,3.24v14.35c0,1.52-.32,2.6-.96,3.24-.64.64-1.72.96-3.24.96h-70.7c-1.52,0-2.6-.32-3.24-.96-.64-.64-.96-1.72-.96-3.24V7c0-1.52.32-2.6.96-3.24s1.72-.96,3.24-.96h15.92c1.51,0,2.62.32,3.33.96.7.64,1.05,1.72,1.05,3.24v93.27c0,.82.17,1.4.53,1.75Z"></path>
    </g>
  </g>
  <g data-name="Layer 3" id="Layer_3">
    <g>
      <path d="m616.66,2.8h-19.08c-1.87,0-3.27.26-4.2.79-.94.52-1.98,1.66-3.15,3.41l-24.85,37.62-24.15-37.1c-1.17-1.98-2.25-3.27-3.24-3.85-.99-.58-2.48-.88-4.46-.88h-19.95c-1.05,0-1.9.17-2.54.52-.64.35-.96.88-.96,1.58s.35,1.57,1.05,2.62l53.55,74.55,54.42-74.55c.7-1.05,1.05-1.93,1.05-2.62,0-1.4-1.17-2.1-3.5-2.1Z"></path>
      <path d="m558.76,85c-5.43,8.28-19.5,29.7-21.54,32.62-2.54,3.62-2.54,3.38-4.71,3.38h-15.83c-3.14,0-2.9-.24-1.57-1.93,1.63-2.07,1-1.21,33.46-47.88l-2.29-3.1s-35.24,49.86-36.29,52.48-2.53,4.72,2.62,4.72h19.25c2.82,0,4.31-.96,5.84-2.48s23.19-34.91,23.19-34.91l-2.14-2.9Z"></path>
      <path d="m571.48,85c5.43,8.28,19.5,29.7,21.54,32.62,2.54,3.62,2.54,3.38,4.71,3.38s12.68,0,15.83,0,2.9-.24,1.57-1.93c-1.63-2.07-1-1.21-33.46-47.88l2.29-3.1s35.24,49.86,36.29,52.48,2.53,4.72-2.63,4.72-16.43,0-19.25,0-4.31-.96-5.84-2.48-23.19-34.91-23.19-34.91l2.14-2.9Z"></path>
    </g>
  </g>
</svg>